<?xml version="1.0" encoding="UTF-8" standalone="no"?>
<!-- Created with Inkscape (http://www.inkscape.org/) -->

<svg
   width="250"
   height="250"
   viewBox="0 0 250 250"
   version="1.1"
   id="svg1"
   inkscape:version="1.3.2 (091e20e, 2023-11-25, custom)"
   sodipodi:docname="dibujo.svg"
   xmlns:inkscape="http://www.inkscape.org/namespaces/inkscape"
   xmlns:sodipodi="http://sodipodi.sourceforge.net/DTD/sodipodi-0.dtd"
   xmlns="http://www.w3.org/2000/svg"
   xmlns:svg="http://www.w3.org/2000/svg">
  <sodipodi:namedview
     id="namedview1"
     pagecolor="#505050"
     bordercolor="#eeeeee"
     borderopacity="1"
     inkscape:showpageshadow="0"
     inkscape:pageopacity="0"
     inkscape:pagecheckerboard="0"
     inkscape:deskcolor="#505050"
     inkscape:document-units="px"
     showguides="true"
     inkscape:zoom="1"
     inkscape:cx="420"
     inkscape:cy="254.5"
     inkscape:window-width="1920"
     inkscape:window-height="1057"
     inkscape:window-x="-8"
     inkscape:window-y="-8"
     inkscape:window-maximized="1"
     inkscape:current-layer="g5">
    <inkscape:page
       x="0"
       y="0"
       width="250"
       height="250"
       id="page1"
       margin="119 147 272 21"
       bleed="0"
       inkscape:export-filename="dibujo.png"
       inkscape:export-xdpi="96"
       inkscape:export-ydpi="96" />
    <sodipodi:guide
       position="16,-39.000001"
       orientation="1,0"
       id="guide1"
       inkscape:locked="false" />
  </sodipodi:namedview>
  <defs
     id="defs1">
    <rect
       x="35.5"
       y="462"
       width="219"
       height="32"
       id="rect3" />
    <rect
       x="260.97879"
       y="310.95346"
       width="102.17042"
       height="38.869183"
       id="rect2" />
    <rect
       x="158.62576"
       y="347.87729"
       width="288.19632"
       height="83.239265"
       id="rect1" />
    <rect
       x="158.62576"
       y="347.87729"
       width="288.19632"
       height="83.239265"
       id="rect1-7" />
    <rect
       x="158.62576"
       y="347.87729"
       width="288.19632"
       height="83.239265"
       id="rect1-7-6" />
    <clipPath
       clipPathUnits="userSpaceOnUse"
       id="clipPath28">
      <path
         d="M 0,500 H 500 V 0 H 0 Z"
         transform="translate(-228.4015,-232.0212)"
         id="path28" />
    </clipPath>
    <clipPath
       clipPathUnits="userSpaceOnUse"
       id="clipPath26">
      <path
         d="M 0,500 H 500 V 0 H 0 Z"
         transform="translate(-384.71941,-297.75701)"
         id="path26" />
    </clipPath>
    <clipPath
       clipPathUnits="userSpaceOnUse"
       id="clipPath28-9">
      <path
         d="M 0,500 H 500 V 0 H 0 Z"
         transform="translate(-228.4015,-232.0212)"
         id="path28-7" />
    </clipPath>
    <clipPath
       clipPathUnits="userSpaceOnUse"
       id="clipPath26-9">
      <path
         d="M 0,500 H 500 V 0 H 0 Z"
         transform="translate(-384.71941,-297.75701)"
         id="path26-0" />
    </clipPath>
    <rect
       x="158.62576"
       y="347.87729"
       width="288.19632"
       height="83.239265"
       id="rect1-7-6-0" />
    <rect
       x="158.62576"
       y="347.87729"
       width="288.19632"
       height="83.239265"
       id="rect1-7-7" />
    <rect
       x="158.62576"
       y="347.87729"
       width="288.19632"
       height="83.239265"
       id="rect1-7-7-3" />
    <clipPath
       clipPathUnits="userSpaceOnUse"
       id="clipPath28-9-5">
      <path
         d="M 0,500 H 500 V 0 H 0 Z"
         transform="translate(-228.4015,-232.0212)"
         id="path28-7-6" />
    </clipPath>
    <rect
       x="158.62576"
       y="347.87729"
       width="288.19632"
       height="83.239265"
       id="rect1-7-6-0-1" />
    <clipPath
       clipPathUnits="userSpaceOnUse"
       id="clipPath26-9-1">
      <path
         d="M 0,500 H 500 V 0 H 0 Z"
         transform="translate(-384.71941,-297.75701)"
         id="path26-0-2" />
    </clipPath>
    <rect
       x="35.5"
       y="462"
       width="91.917389"
       height="45.187817"
       id="rect3-4" />
    <rect
       x="35.5"
       y="462"
       width="91.917389"
       height="45.187817"
       id="rect3-4-2" />
    <rect
       x="35.5"
       y="462"
       width="219"
       height="32"
       id="rect3-6" />
  </defs>
  <g
     inkscape:label="Capa 1"
     inkscape:groupmode="layer"
     id="layer1"
     transform="translate(-15,-114)">
    <g
       id="g4"
       transform="matrix(1.8866728,0,0,1.8866728,114.73006,204.21472)">
      <path
         fill="#161616"
         d="m -18.233386,7.6502459 c 0,1.4568533 -0.24281,2.7923021 -0.72843,4.0063461 -0.48561,1.214044 -1.21404,2.18528 -2.06387,3.035115 -0.849832,0.84983 -1.821072,1.45685 -3.035112,1.94247 -1.09264,0.48561 -2.30669,0.60702 -3.52073,0.60702 -1.21404,0 -2.42809,-0.24281 -3.52073,-0.60702 -1.092642,-0.48562 -2.185282,-1.09264 -3.035112,-1.94247 -0.84983,-0.849835 -1.57826,-1.821071 -2.06387,-3.035115 -0.48562,-1.214044 -0.72843,-2.5494928 -0.72843,-4.0063461 V -17.601873 h -6.920052 V 7.7716509 c 0,3.1565141 0.72842,5.9488161 2.063872,8.3769061 1.33545,2.42808 3.27792,4.249151 5.70601,5.463181 2.42809,1.33545 5.220392,1.94247 8.498312,1.94247 3.15651,0 6.070222,-0.60702 8.498312,-1.94247 2.42809,-1.33544 4.37056,-3.156501 5.706,-5.463181 1.33545,-2.42809 2.06388,-5.098987 2.06388,-8.3769061 V -17.601873 h -6.79865 V 7.6502459 Z"
         id="path1-1-6"
         style="stroke-width:1.21404" />
      <path
         fill="#161616"
         d="M 4.7120496,-17.601873 -8.0354136,22.825788 h 6.9200411 L 1.6769396,14.084681 H 17.580921 l 2.7923,8.741107 h 6.920062 L 14.545811,-17.601873 Z M 3.6194096,7.7716509 9.5682289,-11.046034 15.517051,7.7716509 Z"
         id="path2-6-4"
         style="stroke-width:1.21404" />
      <path
         fill="#0060ab"
         d="m 64.443039,-17.601873 h -8.2555 L 46.717987,2.5512609 37.248445,-17.601873 H 28.992943 L 38.462485,2.5512609 28.992943,22.704378 h 8.255502 L 46.717987,2.5512609 56.187539,22.704378 h 8.2555 L 54.973489,2.5512609 Z"
         id="path3-1-54"
         style="stroke-width:1.21404" />
      <g
         id="g5"
         transform="matrix(0.74634764,0,0,0.815751,-89.395019,-41.553208)"
         style="fill:#161616;fill-opacity:1">
        <text
           xml:space="preserve"
           transform="matrix(3.3584175,0,0,3.3584175,-916.93215,-1095.6787)"
           id="text1-8-5"
           style="font-size:16px;font-family:'Rubik Medium';-inkscape-font-specification:'Rubik Medium, ';text-align:center;letter-spacing:0px;word-spacing:0px;writing-mode:lr-tb;white-space:pre;shape-inside:url(#rect1-7-7);display:inline;fill:#161616;fill-opacity:1;stroke:none;stroke-width:0.153;stroke-linecap:round;stroke-linejoin:round;paint-order:stroke markers fill"
           x="0"
           y="0"><tspan
             x="290.49963"
             y="362.47424"
             id="tspan2"><tspan
               style="font-weight:600;font-family:Manrope;-inkscape-font-specification:'Manrope Semi-Bold'"
               id="tspan1">sat</tspan></tspan></text>
      </g>
    </g>
    <text
       xml:space="preserve"
       id="text2"
       style="font-style:normal;font-variant:normal;font-weight:300;font-stretch:normal;font-size:16px;font-family:Manrope;-inkscape-font-specification:'Manrope Light';text-align:center;letter-spacing:0px;word-spacing:0px;white-space:pre;shape-inside:url(#rect2);display:inline;fill:#c4ddf7;stroke:#0060ab;stroke-width:0.153;stroke-linecap:round;stroke-linejoin:round;paint-order:stroke markers fill" />
  </g>
</svg>
